# xmcd
#
# Track frame offsets:
#	150
#	12774
#	24540
#	36941
#	50039
#	63189
#	76453
#	88623
#	100012
#	112597
#	125225
#	137190
#	148037
#	159615
#	171431
#	183815
#	194611
#	205946
#	217592
#	229925
#	242150
#	255026
#	267589
#	280375
#	292580
#
# Disc length: 4040 seconds
#
# Revision: 1
# Processed by: cddbd v1.5.2PL0 Copyright (c) Steve Scherf et al.
# Submitted via: audiograbber 1.83.01
#
DISCID=620fc619
DTITLE=Hank Williams - The Very Best of Hank Williams CD1
DYEAR=2013
DGENRE=Country
TTITLE0=Move It On Over
TTITLE1=Mansion On The Hill
TTITLE2=Lovesick Blues
TTITLE3=Wedding Bells
TTITLE4=Mind Your Own Buisiness
TTITLE5=You're Gonna Change
TTITLE6=Lost Highway
TTITLE7=My Bucket's Got A Hole In It
TTITLE8=I'm So Lonesome I Could Cry
TTITLE9=I Just Don't Like This Kind Of Living
TTITLE10=Long Gone Lonesome Blues
TTITLE11=Why Don't You Love Me?
TTITLE12=My Son Calls Another Man Daddy
TTITLE13=Why Should We Try Anymore?
TTITLE14=They'll Never Take Her Love From Me
TTITLE15=Moanin' The Blues
TTITLE16=Nobody's Lonesome For Me
TTITLE17=Dear John
TTITLE18=Cold Cold Heart
TTITLE19=Howlin' At The Moon
TTITLE20=Pan American
TTITLE21=Rootie Tootie
TTITLE22=Honky Tonkin'
TTITLE23=The Blues Come Around
TTITLE24=Tennessee Border
EXTD=
EXTT0=
EXTT1=
EXTT2=
EXTT3=
EXTT4=
EXTT5=
EXTT6=
EXTT7=
EXTT8=
EXTT9=
EXTT10=
EXTT11=
EXTT12=
EXTT13=
EXTT14=
EXTT15=
EXTT16=
EXTT17=
EXTT18=
EXTT19=
EXTT20=
EXTT21=
EXTT22=
EXTT23=
EXTT24=
PLAYORDER=
